<mxfile host="Electron" modified="2025-03-12T23:20:09.413Z" agent="Mozilla/5.0 (Windows NT 10.0; Win64; x64) AppleWebKit/537.36 (KHTML, like Gecko) draw.io/21.6.8 Chrome/114.0.5735.289 Electron/25.5.0 Safari/537.36" etag="cg03I0D5UL3hT6cozsL7" version="21.6.8" type="device">
  <diagram name="Page-1" id="WBhZYqXXclYs0Okjmv7t">
    <mxGraphModel dx="2363" dy="2467" grid="1" gridSize="10" guides="1" tooltips="1" connect="1" arrows="1" fold="1" page="1" pageScale="1" pageWidth="850" pageHeight="1100" math="0" shadow="0">
      <root>
        <mxCell id="0" />
        <mxCell id="1" parent="0" />
        <mxCell id="lzTPpIHOZ9qLrul43G57-21" style="edgeStyle=orthogonalEdgeStyle;rounded=0;orthogonalLoop=1;jettySize=auto;html=1;exitX=0.25;exitY=1;exitDx=0;exitDy=0;entryX=0.151;entryY=0.001;entryDx=0;entryDy=0;entryPerimeter=0;" parent="1" source="lzTPpIHOZ9qLrul43G57-2" target="lzTPpIHOZ9qLrul43G57-22" edge="1">
          <mxGeometry relative="1" as="geometry">
            <mxPoint x="120" y="480" as="targetPoint" />
          </mxGeometry>
        </mxCell>
        <mxCell id="lzTPpIHOZ9qLrul43G57-33" value="Click Contact us" style="edgeLabel;html=1;align=center;verticalAlign=middle;resizable=0;points=[];" parent="lzTPpIHOZ9qLrul43G57-21" vertex="1" connectable="0">
          <mxGeometry x="0.0798" y="-2" relative="1" as="geometry">
            <mxPoint as="offset" />
          </mxGeometry>
        </mxCell>
        <mxCell id="lzTPpIHOZ9qLrul43G57-34" style="edgeStyle=orthogonalEdgeStyle;rounded=0;orthogonalLoop=1;jettySize=auto;html=1;exitX=1;exitY=0.5;exitDx=0;exitDy=0;entryX=0;entryY=0.5;entryDx=0;entryDy=0;" parent="1" source="lzTPpIHOZ9qLrul43G57-2" target="lzTPpIHOZ9qLrul43G57-50" edge="1">
          <mxGeometry relative="1" as="geometry">
            <mxPoint x="910" y="205.33333333333337" as="targetPoint" />
          </mxGeometry>
        </mxCell>
        <mxCell id="lzTPpIHOZ9qLrul43G57-38" value="Text" style="edgeLabel;html=1;align=center;verticalAlign=middle;resizable=0;points=[];" parent="lzTPpIHOZ9qLrul43G57-34" vertex="1" connectable="0">
          <mxGeometry x="0.0452" y="-1" relative="1" as="geometry">
            <mxPoint as="offset" />
          </mxGeometry>
        </mxCell>
        <mxCell id="lzTPpIHOZ9qLrul43G57-39" value="Cick Sign UP" style="edgeLabel;html=1;align=center;verticalAlign=middle;resizable=0;points=[];" parent="lzTPpIHOZ9qLrul43G57-34" vertex="1" connectable="0">
          <mxGeometry x="0.0783" y="-1" relative="1" as="geometry">
            <mxPoint as="offset" />
          </mxGeometry>
        </mxCell>
        <mxCell id="lzTPpIHOZ9qLrul43G57-73" style="edgeStyle=orthogonalEdgeStyle;rounded=0;orthogonalLoop=1;jettySize=auto;html=1;exitX=1;exitY=0.75;exitDx=0;exitDy=0;entryX=0;entryY=0.5;entryDx=0;entryDy=0;" parent="1" source="lzTPpIHOZ9qLrul43G57-2" target="lzTPpIHOZ9qLrul43G57-62" edge="1">
          <mxGeometry relative="1" as="geometry" />
        </mxCell>
        <mxCell id="lzTPpIHOZ9qLrul43G57-74" value="Click Login" style="edgeLabel;html=1;align=center;verticalAlign=middle;resizable=0;points=[];" parent="lzTPpIHOZ9qLrul43G57-73" vertex="1" connectable="0">
          <mxGeometry x="-0.0345" y="1" relative="1" as="geometry">
            <mxPoint as="offset" />
          </mxGeometry>
        </mxCell>
        <mxCell id="lzTPpIHOZ9qLrul43G57-2" value="Home Page" style="swimlane;whiteSpace=wrap;html=1;" parent="1" vertex="1">
          <mxGeometry x="240" y="20" width="520" height="370" as="geometry" />
        </mxCell>
        <mxCell id="lzTPpIHOZ9qLrul43G57-3" value="" style="rounded=0;whiteSpace=wrap;html=1;" parent="lzTPpIHOZ9qLrul43G57-2" vertex="1">
          <mxGeometry y="20" width="520" height="30" as="geometry" />
        </mxCell>
        <mxCell id="lzTPpIHOZ9qLrul43G57-12" value="Home" style="html=1;whiteSpace=wrap;" parent="lzTPpIHOZ9qLrul43G57-2" vertex="1">
          <mxGeometry x="50" y="25" width="60" height="20" as="geometry" />
        </mxCell>
        <mxCell id="lzTPpIHOZ9qLrul43G57-16" value="Contact Us" style="html=1;whiteSpace=wrap;fontSize=11;" parent="lzTPpIHOZ9qLrul43G57-2" vertex="1">
          <mxGeometry x="120" y="25" width="60" height="20" as="geometry" />
        </mxCell>
        <mxCell id="lzTPpIHOZ9qLrul43G57-17" value="Sign Up" style="html=1;whiteSpace=wrap;" parent="lzTPpIHOZ9qLrul43G57-2" vertex="1">
          <mxGeometry x="380" y="25" width="60" height="20" as="geometry" />
        </mxCell>
        <mxCell id="lzTPpIHOZ9qLrul43G57-18" value="Login" style="html=1;whiteSpace=wrap;" parent="lzTPpIHOZ9qLrul43G57-2" vertex="1">
          <mxGeometry x="450" y="25" width="60" height="20" as="geometry" />
        </mxCell>
        <mxCell id="lzTPpIHOZ9qLrul43G57-19" value="Title" style="text;align=center;fontStyle=1;verticalAlign=middle;spacingLeft=3;spacingRight=3;strokeColor=none;rotatable=0;points=[[0,0.5],[1,0.5]];portConstraint=eastwest;html=1;" parent="lzTPpIHOZ9qLrul43G57-2" vertex="1">
          <mxGeometry x="220" y="50" width="80" height="26" as="geometry" />
        </mxCell>
        <mxCell id="lzTPpIHOZ9qLrul43G57-20" value="Filler for home page explaing what our company does with visual aids" style="html=1;whiteSpace=wrap;" parent="lzTPpIHOZ9qLrul43G57-2" vertex="1">
          <mxGeometry x="40" y="100" width="440" height="240" as="geometry" />
        </mxCell>
        <mxCell id="lzTPpIHOZ9qLrul43G57-4" value="Logo" style="text;html=1;strokeColor=none;fillColor=none;align=center;verticalAlign=middle;whiteSpace=wrap;rounded=0;" parent="1" vertex="1">
          <mxGeometry x="240" y="40" width="60" height="30" as="geometry" />
        </mxCell>
        <mxCell id="lzTPpIHOZ9qLrul43G57-5" value="Header" style="text;html=1;strokeColor=none;fillColor=none;align=center;verticalAlign=middle;whiteSpace=wrap;rounded=0;" parent="1" vertex="1">
          <mxGeometry x="100" y="40" width="60" height="30" as="geometry" />
        </mxCell>
        <mxCell id="lzTPpIHOZ9qLrul43G57-6" value="" style="endArrow=classic;html=1;rounded=0;exitX=1;exitY=0.5;exitDx=0;exitDy=0;entryX=0;entryY=0.5;entryDx=0;entryDy=0;" parent="1" source="lzTPpIHOZ9qLrul43G57-5" target="lzTPpIHOZ9qLrul43G57-4" edge="1">
          <mxGeometry width="50" height="50" relative="1" as="geometry">
            <mxPoint x="170" y="90" as="sourcePoint" />
            <mxPoint x="220" y="40" as="targetPoint" />
          </mxGeometry>
        </mxCell>
        <mxCell id="lzTPpIHOZ9qLrul43G57-35" style="edgeStyle=orthogonalEdgeStyle;rounded=0;orthogonalLoop=1;jettySize=auto;html=1;exitX=0.75;exitY=0;exitDx=0;exitDy=0;" parent="1" source="lzTPpIHOZ9qLrul43G57-22" edge="1">
          <mxGeometry relative="1" as="geometry">
            <mxPoint x="440" y="390" as="targetPoint" />
          </mxGeometry>
        </mxCell>
        <mxCell id="lzTPpIHOZ9qLrul43G57-36" value="Click Home" style="edgeLabel;html=1;align=center;verticalAlign=middle;resizable=0;points=[];" parent="lzTPpIHOZ9qLrul43G57-35" vertex="1" connectable="0">
          <mxGeometry x="0.032" y="2" relative="1" as="geometry">
            <mxPoint as="offset" />
          </mxGeometry>
        </mxCell>
        <mxCell id="lzTPpIHOZ9qLrul43G57-22" value="Contact us" style="swimlane;whiteSpace=wrap;html=1;" parent="1" vertex="1">
          <mxGeometry x="80" y="480" width="520" height="370" as="geometry" />
        </mxCell>
        <mxCell id="lzTPpIHOZ9qLrul43G57-23" value="" style="rounded=0;whiteSpace=wrap;html=1;" parent="lzTPpIHOZ9qLrul43G57-22" vertex="1">
          <mxGeometry y="20" width="520" height="30" as="geometry" />
        </mxCell>
        <mxCell id="lzTPpIHOZ9qLrul43G57-24" value="Home" style="html=1;whiteSpace=wrap;" parent="lzTPpIHOZ9qLrul43G57-22" vertex="1">
          <mxGeometry x="50" y="25" width="60" height="20" as="geometry" />
        </mxCell>
        <mxCell id="lzTPpIHOZ9qLrul43G57-25" value="Contact Us" style="html=1;whiteSpace=wrap;fontSize=11;" parent="lzTPpIHOZ9qLrul43G57-22" vertex="1">
          <mxGeometry x="120" y="25" width="60" height="20" as="geometry" />
        </mxCell>
        <mxCell id="lzTPpIHOZ9qLrul43G57-26" value="Sign Up" style="html=1;whiteSpace=wrap;" parent="lzTPpIHOZ9qLrul43G57-22" vertex="1">
          <mxGeometry x="380" y="25" width="60" height="20" as="geometry" />
        </mxCell>
        <mxCell id="lzTPpIHOZ9qLrul43G57-27" value="Login" style="html=1;whiteSpace=wrap;" parent="lzTPpIHOZ9qLrul43G57-22" vertex="1">
          <mxGeometry x="450" y="25" width="60" height="20" as="geometry" />
        </mxCell>
        <mxCell id="lzTPpIHOZ9qLrul43G57-28" value="Contact us" style="text;align=center;fontStyle=1;verticalAlign=middle;spacingLeft=3;spacingRight=3;strokeColor=none;rotatable=0;points=[[0,0.5],[1,0.5]];portConstraint=eastwest;html=1;" parent="lzTPpIHOZ9qLrul43G57-22" vertex="1">
          <mxGeometry x="220" y="50" width="80" height="26" as="geometry" />
        </mxCell>
        <mxCell id="lzTPpIHOZ9qLrul43G57-29" value="This page is gonna be the help desk for OUR website, for when people have questions or concerns without the requirement of login&lt;br&gt;(we have this one made)" style="html=1;whiteSpace=wrap;" parent="lzTPpIHOZ9qLrul43G57-22" vertex="1">
          <mxGeometry x="40" y="100" width="440" height="240" as="geometry" />
        </mxCell>
        <mxCell id="lzTPpIHOZ9qLrul43G57-30" value="Logo" style="text;html=1;strokeColor=none;fillColor=none;align=center;verticalAlign=middle;whiteSpace=wrap;rounded=0;" parent="1" vertex="1">
          <mxGeometry x="80" y="500" width="60" height="30" as="geometry" />
        </mxCell>
        <mxCell id="lzTPpIHOZ9qLrul43G57-76" style="edgeStyle=orthogonalEdgeStyle;rounded=0;orthogonalLoop=1;jettySize=auto;html=1;exitX=1;exitY=0.5;exitDx=0;exitDy=0;" parent="1" source="lzTPpIHOZ9qLrul43G57-50" edge="1">
          <mxGeometry relative="1" as="geometry">
            <mxPoint x="1520" y="399.9999999999998" as="targetPoint" />
          </mxGeometry>
        </mxCell>
        <mxCell id="lzTPpIHOZ9qLrul43G57-50" value="Sign Up" style="swimlane;whiteSpace=wrap;html=1;" parent="1" vertex="1">
          <mxGeometry x="920" y="20" width="520" height="370" as="geometry" />
        </mxCell>
        <mxCell id="lzTPpIHOZ9qLrul43G57-51" value="" style="rounded=0;whiteSpace=wrap;html=1;" parent="lzTPpIHOZ9qLrul43G57-50" vertex="1">
          <mxGeometry y="20" width="520" height="30" as="geometry" />
        </mxCell>
        <mxCell id="lzTPpIHOZ9qLrul43G57-52" value="Home" style="html=1;whiteSpace=wrap;" parent="lzTPpIHOZ9qLrul43G57-50" vertex="1">
          <mxGeometry x="50" y="25" width="60" height="20" as="geometry" />
        </mxCell>
        <mxCell id="lzTPpIHOZ9qLrul43G57-53" value="Contact Us" style="html=1;whiteSpace=wrap;fontSize=11;" parent="lzTPpIHOZ9qLrul43G57-50" vertex="1">
          <mxGeometry x="120" y="25" width="60" height="20" as="geometry" />
        </mxCell>
        <mxCell id="lzTPpIHOZ9qLrul43G57-54" value="Sign Up" style="html=1;whiteSpace=wrap;" parent="lzTPpIHOZ9qLrul43G57-50" vertex="1">
          <mxGeometry x="380" y="25" width="60" height="20" as="geometry" />
        </mxCell>
        <mxCell id="lzTPpIHOZ9qLrul43G57-55" value="Login" style="html=1;whiteSpace=wrap;" parent="lzTPpIHOZ9qLrul43G57-50" vertex="1">
          <mxGeometry x="450" y="25" width="60" height="20" as="geometry" />
        </mxCell>
        <mxCell id="lzTPpIHOZ9qLrul43G57-56" value="Register Account" style="text;align=center;fontStyle=1;verticalAlign=middle;spacingLeft=3;spacingRight=3;strokeColor=none;rotatable=0;points=[[0,0.5],[1,0.5]];portConstraint=eastwest;html=1;" parent="lzTPpIHOZ9qLrul43G57-50" vertex="1">
          <mxGeometry x="220" y="50" width="80" height="26" as="geometry" />
        </mxCell>
        <mxCell id="lzTPpIHOZ9qLrul43G57-57" value="A form where user enters in data to either create an account as a Buyer or a Vendor" style="html=1;whiteSpace=wrap;" parent="lzTPpIHOZ9qLrul43G57-50" vertex="1">
          <mxGeometry x="40" y="100" width="440" height="240" as="geometry" />
        </mxCell>
        <mxCell id="lzTPpIHOZ9qLrul43G57-59" value="For Buyers (button)" style="rounded=0;whiteSpace=wrap;html=1;" parent="lzTPpIHOZ9qLrul43G57-50" vertex="1">
          <mxGeometry x="40" y="76" width="220" height="24" as="geometry" />
        </mxCell>
        <mxCell id="lzTPpIHOZ9qLrul43G57-60" value="For Vendors (button)" style="rounded=0;whiteSpace=wrap;html=1;" parent="lzTPpIHOZ9qLrul43G57-50" vertex="1">
          <mxGeometry x="260" y="76" width="220" height="24" as="geometry" />
        </mxCell>
        <mxCell id="lzTPpIHOZ9qLrul43G57-58" value="Logo" style="text;html=1;strokeColor=none;fillColor=none;align=center;verticalAlign=middle;whiteSpace=wrap;rounded=0;" parent="1" vertex="1">
          <mxGeometry x="920" y="40" width="60" height="30" as="geometry" />
        </mxCell>
        <mxCell id="lzTPpIHOZ9qLrul43G57-77" style="edgeStyle=orthogonalEdgeStyle;rounded=0;orthogonalLoop=1;jettySize=auto;html=1;exitX=1;exitY=0.25;exitDx=0;exitDy=0;" parent="1" source="lzTPpIHOZ9qLrul43G57-62" edge="1">
          <mxGeometry relative="1" as="geometry">
            <mxPoint x="1520" y="399.9999999999998" as="targetPoint" />
          </mxGeometry>
        </mxCell>
        <mxCell id="lzTPpIHOZ9qLrul43G57-62" value="Login" style="swimlane;whiteSpace=wrap;html=1;" parent="1" vertex="1">
          <mxGeometry x="920" y="440" width="520" height="370" as="geometry" />
        </mxCell>
        <mxCell id="lzTPpIHOZ9qLrul43G57-63" value="" style="rounded=0;whiteSpace=wrap;html=1;" parent="lzTPpIHOZ9qLrul43G57-62" vertex="1">
          <mxGeometry y="20" width="520" height="30" as="geometry" />
        </mxCell>
        <mxCell id="lzTPpIHOZ9qLrul43G57-64" value="Home" style="html=1;whiteSpace=wrap;" parent="lzTPpIHOZ9qLrul43G57-62" vertex="1">
          <mxGeometry x="50" y="25" width="60" height="20" as="geometry" />
        </mxCell>
        <mxCell id="lzTPpIHOZ9qLrul43G57-65" value="Contact Us" style="html=1;whiteSpace=wrap;fontSize=11;" parent="lzTPpIHOZ9qLrul43G57-62" vertex="1">
          <mxGeometry x="120" y="25" width="60" height="20" as="geometry" />
        </mxCell>
        <mxCell id="lzTPpIHOZ9qLrul43G57-66" value="Sign Up" style="html=1;whiteSpace=wrap;" parent="lzTPpIHOZ9qLrul43G57-62" vertex="1">
          <mxGeometry x="380" y="25" width="60" height="20" as="geometry" />
        </mxCell>
        <mxCell id="lzTPpIHOZ9qLrul43G57-67" value="Login" style="html=1;whiteSpace=wrap;" parent="lzTPpIHOZ9qLrul43G57-62" vertex="1">
          <mxGeometry x="450" y="25" width="60" height="20" as="geometry" />
        </mxCell>
        <mxCell id="lzTPpIHOZ9qLrul43G57-68" value="Register Account" style="text;align=center;fontStyle=1;verticalAlign=middle;spacingLeft=3;spacingRight=3;strokeColor=none;rotatable=0;points=[[0,0.5],[1,0.5]];portConstraint=eastwest;html=1;" parent="lzTPpIHOZ9qLrul43G57-62" vertex="1">
          <mxGeometry x="220" y="50" width="80" height="26" as="geometry" />
        </mxCell>
        <mxCell id="lzTPpIHOZ9qLrul43G57-69" value="Login screen so just username and passcode" style="html=1;whiteSpace=wrap;" parent="lzTPpIHOZ9qLrul43G57-62" vertex="1">
          <mxGeometry x="40" y="100" width="440" height="240" as="geometry" />
        </mxCell>
        <mxCell id="lzTPpIHOZ9qLrul43G57-70" value="For Buyers (button)" style="rounded=0;whiteSpace=wrap;html=1;" parent="lzTPpIHOZ9qLrul43G57-62" vertex="1">
          <mxGeometry x="40" y="76" width="220" height="24" as="geometry" />
        </mxCell>
        <mxCell id="lzTPpIHOZ9qLrul43G57-71" value="For Vendors (button)" style="rounded=0;whiteSpace=wrap;html=1;" parent="lzTPpIHOZ9qLrul43G57-62" vertex="1">
          <mxGeometry x="260" y="76" width="220" height="24" as="geometry" />
        </mxCell>
        <mxCell id="lzTPpIHOZ9qLrul43G57-72" value="Logo" style="text;html=1;strokeColor=none;fillColor=none;align=center;verticalAlign=middle;whiteSpace=wrap;rounded=0;" parent="1" vertex="1">
          <mxGeometry x="920" y="460" width="60" height="30" as="geometry" />
        </mxCell>
        <mxCell id="lzTPpIHOZ9qLrul43G57-79" style="edgeStyle=orthogonalEdgeStyle;rounded=0;orthogonalLoop=1;jettySize=auto;html=1;exitX=1;exitY=0;exitDx=0;exitDy=0;" parent="1" source="lzTPpIHOZ9qLrul43G57-78" edge="1">
          <mxGeometry relative="1" as="geometry">
            <mxPoint x="90" y="-50" as="targetPoint" />
            <Array as="points">
              <mxPoint x="1660" y="362" />
              <mxPoint x="1660" y="-10" />
            </Array>
          </mxGeometry>
        </mxCell>
        <mxCell id="lzTPpIHOZ9qLrul43G57-90" value="Vendors" style="edgeLabel;html=1;align=center;verticalAlign=middle;resizable=0;points=[];" parent="lzTPpIHOZ9qLrul43G57-79" vertex="1" connectable="0">
          <mxGeometry x="-0.9533" relative="1" as="geometry">
            <mxPoint as="offset" />
          </mxGeometry>
        </mxCell>
        <mxCell id="lzTPpIHOZ9qLrul43G57-91" style="edgeStyle=orthogonalEdgeStyle;rounded=0;orthogonalLoop=1;jettySize=auto;html=1;exitX=1;exitY=1;exitDx=0;exitDy=0;" parent="1" source="lzTPpIHOZ9qLrul43G57-78" edge="1">
          <mxGeometry relative="1" as="geometry">
            <mxPoint x="80" y="1120" as="targetPoint" />
            <Array as="points">
              <mxPoint x="1660" y="418" />
              <mxPoint x="1660" y="1051" />
            </Array>
          </mxGeometry>
        </mxCell>
        <mxCell id="lzTPpIHOZ9qLrul43G57-92" value="Buyers" style="edgeLabel;html=1;align=center;verticalAlign=middle;resizable=0;points=[];" parent="lzTPpIHOZ9qLrul43G57-91" vertex="1" connectable="0">
          <mxGeometry x="-0.9637" y="-1" relative="1" as="geometry">
            <mxPoint x="-1" as="offset" />
          </mxGeometry>
        </mxCell>
        <mxCell id="lzTPpIHOZ9qLrul43G57-78" value="User is now signed in." style="ellipse;whiteSpace=wrap;html=1;aspect=fixed;" parent="1" vertex="1">
          <mxGeometry x="1480" y="350" width="80" height="80" as="geometry" />
        </mxCell>
        <mxCell id="lzTPpIHOZ9qLrul43G57-81" value="Vendor Home Page" style="swimlane;whiteSpace=wrap;html=1;" parent="1" vertex="1">
          <mxGeometry x="20" y="-420" width="520" height="370" as="geometry" />
        </mxCell>
        <mxCell id="lzTPpIHOZ9qLrul43G57-82" value="" style="rounded=0;whiteSpace=wrap;html=1;" parent="lzTPpIHOZ9qLrul43G57-81" vertex="1">
          <mxGeometry y="20" width="520" height="30" as="geometry" />
        </mxCell>
        <mxCell id="lzTPpIHOZ9qLrul43G57-83" value="Home" style="html=1;whiteSpace=wrap;" parent="lzTPpIHOZ9qLrul43G57-81" vertex="1">
          <mxGeometry x="40" y="25" width="60" height="20" as="geometry" />
        </mxCell>
        <mxCell id="lzTPpIHOZ9qLrul43G57-84" value="Contact Us" style="html=1;whiteSpace=wrap;fontSize=11;" parent="lzTPpIHOZ9qLrul43G57-81" vertex="1">
          <mxGeometry x="460" y="350" width="60" height="20" as="geometry" />
        </mxCell>
        <mxCell id="lzTPpIHOZ9qLrul43G57-86" value="Logout" style="html=1;whiteSpace=wrap;" parent="lzTPpIHOZ9qLrul43G57-81" vertex="1">
          <mxGeometry x="460" y="35" width="60" height="15" as="geometry" />
        </mxCell>
        <mxCell id="lzTPpIHOZ9qLrul43G57-87" value="Title" style="text;align=center;fontStyle=1;verticalAlign=middle;spacingLeft=3;spacingRight=3;strokeColor=none;rotatable=0;points=[[0,0.5],[1,0.5]];portConstraint=eastwest;html=1;" parent="lzTPpIHOZ9qLrul43G57-81" vertex="1">
          <mxGeometry x="220" y="50" width="80" height="26" as="geometry" />
        </mxCell>
        <mxCell id="lzTPpIHOZ9qLrul43G57-88" value="Filler for home page explaing what our company does with visual aids&lt;br&gt;Also has links to the listing orders and reports in case people are really stupid&lt;br&gt;and cant read the header." style="html=1;whiteSpace=wrap;" parent="lzTPpIHOZ9qLrul43G57-81" vertex="1">
          <mxGeometry x="40" y="100" width="440" height="240" as="geometry" />
        </mxCell>
        <mxCell id="lzTPpIHOZ9qLrul43G57-94" value="Account" style="html=1;whiteSpace=wrap;" parent="lzTPpIHOZ9qLrul43G57-81" vertex="1">
          <mxGeometry x="460" y="20" width="60" height="15" as="geometry" />
        </mxCell>
        <mxCell id="lzTPpIHOZ9qLrul43G57-95" value="Listing" style="html=1;whiteSpace=wrap;" parent="lzTPpIHOZ9qLrul43G57-81" vertex="1">
          <mxGeometry x="110" y="25" width="60" height="20" as="geometry" />
        </mxCell>
        <mxCell id="lzTPpIHOZ9qLrul43G57-96" value="Orders" style="html=1;whiteSpace=wrap;" parent="lzTPpIHOZ9qLrul43G57-81" vertex="1">
          <mxGeometry x="180" y="25" width="60" height="20" as="geometry" />
        </mxCell>
        <mxCell id="lzTPpIHOZ9qLrul43G57-97" value="Reports" style="html=1;whiteSpace=wrap;" parent="lzTPpIHOZ9qLrul43G57-81" vertex="1">
          <mxGeometry x="250" y="25" width="60" height="20" as="geometry" />
        </mxCell>
        <mxCell id="lzTPpIHOZ9qLrul43G57-168" value="&lt;font style=&quot;font-size: 9px;&quot;&gt;Username&lt;/font&gt;" style="text;html=1;strokeColor=none;fillColor=none;align=center;verticalAlign=middle;whiteSpace=wrap;rounded=0;" parent="lzTPpIHOZ9qLrul43G57-81" vertex="1">
          <mxGeometry x="380" y="25" width="45" height="20" as="geometry" />
        </mxCell>
        <mxCell id="lzTPpIHOZ9qLrul43G57-169" value="" style="html=1;verticalLabelPosition=bottom;align=center;labelBackgroundColor=#ffffff;verticalAlign=top;strokeWidth=2;strokeColor=#0080F0;shadow=0;dashed=0;shape=mxgraph.ios7.icons.bell;" parent="lzTPpIHOZ9qLrul43G57-81" vertex="1">
          <mxGeometry x="428" y="25" width="20" height="20" as="geometry" />
        </mxCell>
        <mxCell id="lzTPpIHOZ9qLrul43G57-89" value="Logo" style="text;html=1;strokeColor=none;fillColor=none;align=center;verticalAlign=middle;whiteSpace=wrap;rounded=0;" parent="lzTPpIHOZ9qLrul43G57-81" vertex="1">
          <mxGeometry x="-10" y="20" width="60" height="30" as="geometry" />
        </mxCell>
        <mxCell id="lzTPpIHOZ9qLrul43G57-98" value="Listing" style="swimlane;fontStyle=0;childLayout=stackLayout;horizontal=1;startSize=30;horizontalStack=0;resizeParent=1;resizeParentMax=0;resizeLast=0;collapsible=1;marginBottom=0;whiteSpace=wrap;html=1;" parent="1" vertex="1">
          <mxGeometry x="20" y="-560" width="130" height="120" as="geometry" />
        </mxCell>
        <mxCell id="lzTPpIHOZ9qLrul43G57-99" value="Add listing" style="text;strokeColor=none;fillColor=none;align=left;verticalAlign=middle;spacingLeft=4;spacingRight=4;overflow=hidden;points=[[0,0.5],[1,0.5]];portConstraint=eastwest;rotatable=0;whiteSpace=wrap;html=1;" parent="lzTPpIHOZ9qLrul43G57-98" vertex="1">
          <mxGeometry y="30" width="130" height="30" as="geometry" />
        </mxCell>
        <mxCell id="lzTPpIHOZ9qLrul43G57-100" value="Edit Listing" style="text;strokeColor=none;fillColor=none;align=left;verticalAlign=middle;spacingLeft=4;spacingRight=4;overflow=hidden;points=[[0,0.5],[1,0.5]];portConstraint=eastwest;rotatable=0;whiteSpace=wrap;html=1;" parent="lzTPpIHOZ9qLrul43G57-98" vertex="1">
          <mxGeometry y="60" width="130" height="30" as="geometry" />
        </mxCell>
        <mxCell id="lzTPpIHOZ9qLrul43G57-101" value="Search competitors" style="text;strokeColor=none;fillColor=none;align=left;verticalAlign=middle;spacingLeft=4;spacingRight=4;overflow=hidden;points=[[0,0.5],[1,0.5]];portConstraint=eastwest;rotatable=0;whiteSpace=wrap;html=1;" parent="lzTPpIHOZ9qLrul43G57-98" vertex="1">
          <mxGeometry y="90" width="130" height="30" as="geometry" />
        </mxCell>
        <mxCell id="lzTPpIHOZ9qLrul43G57-105" value="Orders" style="swimlane;fontStyle=0;childLayout=stackLayout;horizontal=1;startSize=30;horizontalStack=0;resizeParent=1;resizeParentMax=0;resizeLast=0;collapsible=1;marginBottom=0;whiteSpace=wrap;html=1;" parent="1" vertex="1">
          <mxGeometry x="150" y="-560" width="130" height="120" as="geometry" />
        </mxCell>
        <mxCell id="lzTPpIHOZ9qLrul43G57-106" value="Current Orders" style="text;strokeColor=none;fillColor=none;align=left;verticalAlign=middle;spacingLeft=4;spacingRight=4;overflow=hidden;points=[[0,0.5],[1,0.5]];portConstraint=eastwest;rotatable=0;whiteSpace=wrap;html=1;" parent="lzTPpIHOZ9qLrul43G57-105" vertex="1">
          <mxGeometry y="30" width="130" height="30" as="geometry" />
        </mxCell>
        <mxCell id="lzTPpIHOZ9qLrul43G57-107" value="Current inquireys&amp;nbsp;" style="text;strokeColor=none;fillColor=none;align=left;verticalAlign=middle;spacingLeft=4;spacingRight=4;overflow=hidden;points=[[0,0.5],[1,0.5]];portConstraint=eastwest;rotatable=0;whiteSpace=wrap;html=1;" parent="lzTPpIHOZ9qLrul43G57-105" vertex="1">
          <mxGeometry y="60" width="130" height="30" as="geometry" />
        </mxCell>
        <mxCell id="lzTPpIHOZ9qLrul43G57-108" value="Order History" style="text;strokeColor=none;fillColor=none;align=left;verticalAlign=middle;spacingLeft=4;spacingRight=4;overflow=hidden;points=[[0,0.5],[1,0.5]];portConstraint=eastwest;rotatable=0;whiteSpace=wrap;html=1;" parent="lzTPpIHOZ9qLrul43G57-105" vertex="1">
          <mxGeometry y="90" width="130" height="30" as="geometry" />
        </mxCell>
        <mxCell id="lzTPpIHOZ9qLrul43G57-109" value="Reports" style="swimlane;fontStyle=0;childLayout=stackLayout;horizontal=1;startSize=30;horizontalStack=0;resizeParent=1;resizeParentMax=0;resizeLast=0;collapsible=1;marginBottom=0;whiteSpace=wrap;html=1;" parent="1" vertex="1">
          <mxGeometry x="280" y="-560" width="130" height="120" as="geometry" />
        </mxCell>
        <mxCell id="lzTPpIHOZ9qLrul43G57-110" value="Revenue reports" style="text;strokeColor=none;fillColor=none;align=left;verticalAlign=middle;spacingLeft=4;spacingRight=4;overflow=hidden;points=[[0,0.5],[1,0.5]];portConstraint=eastwest;rotatable=0;whiteSpace=wrap;html=1;" parent="lzTPpIHOZ9qLrul43G57-109" vertex="1">
          <mxGeometry y="30" width="130" height="30" as="geometry" />
        </mxCell>
        <mxCell id="lzTPpIHOZ9qLrul43G57-111" value="Product reports" style="text;strokeColor=none;fillColor=none;align=left;verticalAlign=middle;spacingLeft=4;spacingRight=4;overflow=hidden;points=[[0,0.5],[1,0.5]];portConstraint=eastwest;rotatable=0;whiteSpace=wrap;html=1;" parent="lzTPpIHOZ9qLrul43G57-109" vertex="1">
          <mxGeometry y="60" width="130" height="30" as="geometry" />
        </mxCell>
        <mxCell id="lzTPpIHOZ9qLrul43G57-112" value="Buyer reports" style="text;strokeColor=none;fillColor=none;align=left;verticalAlign=middle;spacingLeft=4;spacingRight=4;overflow=hidden;points=[[0,0.5],[1,0.5]];portConstraint=eastwest;rotatable=0;whiteSpace=wrap;html=1;" parent="lzTPpIHOZ9qLrul43G57-109" vertex="1">
          <mxGeometry y="90" width="130" height="30" as="geometry" />
        </mxCell>
        <mxCell id="lzTPpIHOZ9qLrul43G57-138" value="Buyer Home Page" style="swimlane;whiteSpace=wrap;html=1;" parent="1" vertex="1">
          <mxGeometry x="20" y="1120" width="520" height="370" as="geometry" />
        </mxCell>
        <mxCell id="lzTPpIHOZ9qLrul43G57-139" value="" style="rounded=0;whiteSpace=wrap;html=1;" parent="lzTPpIHOZ9qLrul43G57-138" vertex="1">
          <mxGeometry y="20" width="520" height="30" as="geometry" />
        </mxCell>
        <mxCell id="lzTPpIHOZ9qLrul43G57-140" value="Home" style="html=1;whiteSpace=wrap;" parent="lzTPpIHOZ9qLrul43G57-138" vertex="1">
          <mxGeometry x="40" y="25" width="60" height="20" as="geometry" />
        </mxCell>
        <mxCell id="lzTPpIHOZ9qLrul43G57-141" value="Cart" style="html=1;whiteSpace=wrap;fontSize=11;" parent="lzTPpIHOZ9qLrul43G57-138" vertex="1">
          <mxGeometry x="320" y="25" width="60" height="20" as="geometry" />
        </mxCell>
        <mxCell id="lzTPpIHOZ9qLrul43G57-142" value="Logout" style="html=1;whiteSpace=wrap;" parent="lzTPpIHOZ9qLrul43G57-138" vertex="1">
          <mxGeometry x="460" y="35" width="60" height="15" as="geometry" />
        </mxCell>
        <mxCell id="lzTPpIHOZ9qLrul43G57-143" value="Title" style="text;align=center;fontStyle=1;verticalAlign=middle;spacingLeft=3;spacingRight=3;strokeColor=none;rotatable=0;points=[[0,0.5],[1,0.5]];portConstraint=eastwest;html=1;" parent="lzTPpIHOZ9qLrul43G57-138" vertex="1">
          <mxGeometry x="220" y="50" width="80" height="26" as="geometry" />
        </mxCell>
        <mxCell id="lzTPpIHOZ9qLrul43G57-144" value="Filler for home page explaing what our company does with visual aids&lt;br style=&quot;border-color: var(--border-color);&quot;&gt;Also has links to the listing orders and reports in case people are really stupid&lt;br style=&quot;border-color: var(--border-color);&quot;&gt;and cant read the header." style="html=1;whiteSpace=wrap;" parent="lzTPpIHOZ9qLrul43G57-138" vertex="1">
          <mxGeometry x="40" y="100" width="440" height="240" as="geometry" />
        </mxCell>
        <mxCell id="lzTPpIHOZ9qLrul43G57-145" value="&lt;font style=&quot;font-size: 9px;&quot;&gt;Username&lt;/font&gt;" style="text;html=1;strokeColor=none;fillColor=none;align=center;verticalAlign=middle;whiteSpace=wrap;rounded=0;" parent="lzTPpIHOZ9qLrul43G57-138" vertex="1">
          <mxGeometry x="384" y="25" width="45" height="20" as="geometry" />
        </mxCell>
        <mxCell id="lzTPpIHOZ9qLrul43G57-146" value="Account" style="html=1;whiteSpace=wrap;" parent="lzTPpIHOZ9qLrul43G57-138" vertex="1">
          <mxGeometry x="460" y="20" width="60" height="15" as="geometry" />
        </mxCell>
        <mxCell id="lzTPpIHOZ9qLrul43G57-147" value="Listing" style="html=1;whiteSpace=wrap;" parent="lzTPpIHOZ9qLrul43G57-138" vertex="1">
          <mxGeometry x="110" y="25" width="60" height="20" as="geometry" />
        </mxCell>
        <mxCell id="lzTPpIHOZ9qLrul43G57-148" value="Orders" style="html=1;whiteSpace=wrap;" parent="lzTPpIHOZ9qLrul43G57-138" vertex="1">
          <mxGeometry x="180" y="25" width="60" height="20" as="geometry" />
        </mxCell>
        <mxCell id="lzTPpIHOZ9qLrul43G57-149" value="Reports" style="html=1;whiteSpace=wrap;" parent="lzTPpIHOZ9qLrul43G57-138" vertex="1">
          <mxGeometry x="250" y="25" width="60" height="20" as="geometry" />
        </mxCell>
        <mxCell id="lzTPpIHOZ9qLrul43G57-163" value="Contact Us" style="html=1;whiteSpace=wrap;fontSize=11;" parent="lzTPpIHOZ9qLrul43G57-138" vertex="1">
          <mxGeometry x="460" y="350" width="60" height="20" as="geometry" />
        </mxCell>
        <mxCell id="lzTPpIHOZ9qLrul43G57-150" value="Logo" style="text;html=1;strokeColor=none;fillColor=none;align=center;verticalAlign=middle;whiteSpace=wrap;rounded=0;" parent="lzTPpIHOZ9qLrul43G57-138" vertex="1">
          <mxGeometry x="-10" y="20" width="60" height="30" as="geometry" />
        </mxCell>
        <mxCell id="lzTPpIHOZ9qLrul43G57-167" value="" style="html=1;verticalLabelPosition=bottom;align=center;labelBackgroundColor=#ffffff;verticalAlign=top;strokeWidth=2;strokeColor=#0080F0;shadow=0;dashed=0;shape=mxgraph.ios7.icons.bell;" parent="lzTPpIHOZ9qLrul43G57-138" vertex="1">
          <mxGeometry x="432" y="25" width="20" height="20" as="geometry" />
        </mxCell>
        <mxCell id="lzTPpIHOZ9qLrul43G57-151" value="Search" style="swimlane;fontStyle=0;childLayout=stackLayout;horizontal=1;startSize=30;horizontalStack=0;resizeParent=1;resizeParentMax=0;resizeLast=0;collapsible=1;marginBottom=0;whiteSpace=wrap;html=1;" parent="1" vertex="1">
          <mxGeometry x="20" y="1500" width="130" height="120" as="geometry">
            <mxRectangle x="20" y="1500" width="80" height="30" as="alternateBounds" />
          </mxGeometry>
        </mxCell>
        <mxCell id="lzTPpIHOZ9qLrul43G57-152" value="Search by product" style="text;strokeColor=none;fillColor=none;align=left;verticalAlign=middle;spacingLeft=4;spacingRight=4;overflow=hidden;points=[[0,0.5],[1,0.5]];portConstraint=eastwest;rotatable=0;whiteSpace=wrap;html=1;" parent="lzTPpIHOZ9qLrul43G57-151" vertex="1">
          <mxGeometry y="30" width="130" height="30" as="geometry" />
        </mxCell>
        <mxCell id="lzTPpIHOZ9qLrul43G57-153" value="Search by vendor" style="text;align=left;verticalAlign=middle;spacingLeft=4;spacingRight=4;overflow=hidden;points=[[0,0.5],[1,0.5]];portConstraint=eastwest;rotatable=0;whiteSpace=wrap;html=1;" parent="lzTPpIHOZ9qLrul43G57-151" vertex="1">
          <mxGeometry y="60" width="130" height="30" as="geometry" />
        </mxCell>
        <mxCell id="i0WzTxd4GKsl4wko7aH3-4" value="Filter" style="text;align=left;verticalAlign=middle;spacingLeft=4;spacingRight=4;overflow=hidden;points=[[0,0.5],[1,0.5]];portConstraint=eastwest;rotatable=0;whiteSpace=wrap;html=1;" vertex="1" parent="lzTPpIHOZ9qLrul43G57-151">
          <mxGeometry y="90" width="130" height="30" as="geometry" />
        </mxCell>
        <mxCell id="lzTPpIHOZ9qLrul43G57-155" value="Orders" style="swimlane;fontStyle=0;childLayout=stackLayout;horizontal=1;startSize=30;horizontalStack=0;resizeParent=1;resizeParentMax=0;resizeLast=0;collapsible=1;marginBottom=0;whiteSpace=wrap;html=1;" parent="1" vertex="1">
          <mxGeometry x="150" y="1500" width="130" height="120" as="geometry" />
        </mxCell>
        <mxCell id="lzTPpIHOZ9qLrul43G57-156" value="Current Orders" style="text;strokeColor=none;fillColor=none;align=left;verticalAlign=middle;spacingLeft=4;spacingRight=4;overflow=hidden;points=[[0,0.5],[1,0.5]];portConstraint=eastwest;rotatable=0;whiteSpace=wrap;html=1;" parent="lzTPpIHOZ9qLrul43G57-155" vertex="1">
          <mxGeometry y="30" width="130" height="30" as="geometry" />
        </mxCell>
        <mxCell id="lzTPpIHOZ9qLrul43G57-157" value="Current inquireys&amp;nbsp;" style="text;strokeColor=none;fillColor=none;align=left;verticalAlign=middle;spacingLeft=4;spacingRight=4;overflow=hidden;points=[[0,0.5],[1,0.5]];portConstraint=eastwest;rotatable=0;whiteSpace=wrap;html=1;" parent="lzTPpIHOZ9qLrul43G57-155" vertex="1">
          <mxGeometry y="60" width="130" height="30" as="geometry" />
        </mxCell>
        <mxCell id="lzTPpIHOZ9qLrul43G57-158" value="Order History" style="text;strokeColor=none;fillColor=none;align=left;verticalAlign=middle;spacingLeft=4;spacingRight=4;overflow=hidden;points=[[0,0.5],[1,0.5]];portConstraint=eastwest;rotatable=0;whiteSpace=wrap;html=1;" parent="lzTPpIHOZ9qLrul43G57-155" vertex="1">
          <mxGeometry y="90" width="130" height="30" as="geometry" />
        </mxCell>
        <mxCell id="lzTPpIHOZ9qLrul43G57-159" value="Reports" style="swimlane;fontStyle=0;childLayout=stackLayout;horizontal=1;startSize=30;horizontalStack=0;resizeParent=1;resizeParentMax=0;resizeLast=0;collapsible=1;marginBottom=0;whiteSpace=wrap;html=1;" parent="1" vertex="1">
          <mxGeometry x="280" y="1500" width="130" height="90" as="geometry" />
        </mxCell>
        <mxCell id="lzTPpIHOZ9qLrul43G57-161" value="Product reports" style="text;strokeColor=none;fillColor=none;align=left;verticalAlign=middle;spacingLeft=4;spacingRight=4;overflow=hidden;points=[[0,0.5],[1,0.5]];portConstraint=eastwest;rotatable=0;whiteSpace=wrap;html=1;" parent="lzTPpIHOZ9qLrul43G57-159" vertex="1">
          <mxGeometry y="30" width="130" height="30" as="geometry" />
        </mxCell>
        <mxCell id="lzTPpIHOZ9qLrul43G57-162" value="Expense reports" style="text;strokeColor=none;fillColor=none;align=left;verticalAlign=middle;spacingLeft=4;spacingRight=4;overflow=hidden;points=[[0,0.5],[1,0.5]];portConstraint=eastwest;rotatable=0;whiteSpace=wrap;html=1;" parent="lzTPpIHOZ9qLrul43G57-159" vertex="1">
          <mxGeometry y="60" width="130" height="30" as="geometry" />
        </mxCell>
        <mxCell id="lzTPpIHOZ9qLrul43G57-164" value="Cart" style="swimlane;fontStyle=0;childLayout=stackLayout;horizontal=1;startSize=30;horizontalStack=0;resizeParent=1;resizeParentMax=0;resizeLast=0;collapsible=1;marginBottom=0;whiteSpace=wrap;html=1;" parent="1" vertex="1">
          <mxGeometry x="410" y="1500" width="130" height="90" as="geometry" />
        </mxCell>
        <mxCell id="lzTPpIHOZ9qLrul43G57-165" value="Go to Cart" style="text;strokeColor=none;fillColor=none;align=left;verticalAlign=middle;spacingLeft=4;spacingRight=4;overflow=hidden;points=[[0,0.5],[1,0.5]];portConstraint=eastwest;rotatable=0;whiteSpace=wrap;html=1;" parent="lzTPpIHOZ9qLrul43G57-164" vertex="1">
          <mxGeometry y="30" width="130" height="30" as="geometry" />
        </mxCell>
        <mxCell id="lzTPpIHOZ9qLrul43G57-166" value="Go to Check out" style="text;strokeColor=none;fillColor=none;align=left;verticalAlign=middle;spacingLeft=4;spacingRight=4;overflow=hidden;points=[[0,0.5],[1,0.5]];portConstraint=eastwest;rotatable=0;whiteSpace=wrap;html=1;" parent="lzTPpIHOZ9qLrul43G57-164" vertex="1">
          <mxGeometry y="60" width="130" height="30" as="geometry" />
        </mxCell>
        <mxCell id="i0WzTxd4GKsl4wko7aH3-5" value="Buyer Search Page" style="swimlane;whiteSpace=wrap;html=1;" vertex="1" parent="1">
          <mxGeometry x="20" y="1660" width="520" height="370" as="geometry" />
        </mxCell>
        <mxCell id="i0WzTxd4GKsl4wko7aH3-6" value="" style="rounded=0;whiteSpace=wrap;html=1;" vertex="1" parent="i0WzTxd4GKsl4wko7aH3-5">
          <mxGeometry y="20" width="520" height="30" as="geometry" />
        </mxCell>
        <mxCell id="i0WzTxd4GKsl4wko7aH3-7" value="Home" style="html=1;whiteSpace=wrap;" vertex="1" parent="i0WzTxd4GKsl4wko7aH3-5">
          <mxGeometry x="40" y="25" width="60" height="20" as="geometry" />
        </mxCell>
        <mxCell id="i0WzTxd4GKsl4wko7aH3-8" value="Cart" style="html=1;whiteSpace=wrap;fontSize=11;" vertex="1" parent="i0WzTxd4GKsl4wko7aH3-5">
          <mxGeometry x="320" y="25" width="60" height="20" as="geometry" />
        </mxCell>
        <mxCell id="i0WzTxd4GKsl4wko7aH3-9" value="Logout" style="html=1;whiteSpace=wrap;" vertex="1" parent="i0WzTxd4GKsl4wko7aH3-5">
          <mxGeometry x="460" y="35" width="60" height="15" as="geometry" />
        </mxCell>
        <mxCell id="i0WzTxd4GKsl4wko7aH3-10" value="Title" style="text;align=center;fontStyle=1;verticalAlign=middle;spacingLeft=3;spacingRight=3;strokeColor=none;rotatable=0;points=[[0,0.5],[1,0.5]];portConstraint=eastwest;html=1;" vertex="1" parent="i0WzTxd4GKsl4wko7aH3-5">
          <mxGeometry x="220" y="60" width="80" height="26" as="geometry" />
        </mxCell>
        <mxCell id="i0WzTxd4GKsl4wko7aH3-11" value="Search bar" style="html=1;whiteSpace=wrap;" vertex="1" parent="i0WzTxd4GKsl4wko7aH3-5">
          <mxGeometry x="150" y="90" width="220" height="30" as="geometry" />
        </mxCell>
        <mxCell id="i0WzTxd4GKsl4wko7aH3-12" value="&lt;font style=&quot;font-size: 9px;&quot;&gt;Username&lt;/font&gt;" style="text;html=1;strokeColor=none;fillColor=none;align=center;verticalAlign=middle;whiteSpace=wrap;rounded=0;" vertex="1" parent="i0WzTxd4GKsl4wko7aH3-5">
          <mxGeometry x="384" y="25" width="45" height="20" as="geometry" />
        </mxCell>
        <mxCell id="i0WzTxd4GKsl4wko7aH3-13" value="Account" style="html=1;whiteSpace=wrap;" vertex="1" parent="i0WzTxd4GKsl4wko7aH3-5">
          <mxGeometry x="460" y="20" width="60" height="15" as="geometry" />
        </mxCell>
        <mxCell id="i0WzTxd4GKsl4wko7aH3-14" value="Listing" style="html=1;whiteSpace=wrap;" vertex="1" parent="i0WzTxd4GKsl4wko7aH3-5">
          <mxGeometry x="110" y="25" width="60" height="20" as="geometry" />
        </mxCell>
        <mxCell id="i0WzTxd4GKsl4wko7aH3-15" value="Orders" style="html=1;whiteSpace=wrap;" vertex="1" parent="i0WzTxd4GKsl4wko7aH3-5">
          <mxGeometry x="180" y="25" width="60" height="20" as="geometry" />
        </mxCell>
        <mxCell id="i0WzTxd4GKsl4wko7aH3-16" value="Reports" style="html=1;whiteSpace=wrap;" vertex="1" parent="i0WzTxd4GKsl4wko7aH3-5">
          <mxGeometry x="250" y="25" width="60" height="20" as="geometry" />
        </mxCell>
        <mxCell id="i0WzTxd4GKsl4wko7aH3-17" value="Contact Us" style="html=1;whiteSpace=wrap;fontSize=11;" vertex="1" parent="i0WzTxd4GKsl4wko7aH3-5">
          <mxGeometry x="460" y="350" width="60" height="20" as="geometry" />
        </mxCell>
        <mxCell id="i0WzTxd4GKsl4wko7aH3-18" value="Logo" style="text;html=1;strokeColor=none;fillColor=none;align=center;verticalAlign=middle;whiteSpace=wrap;rounded=0;" vertex="1" parent="i0WzTxd4GKsl4wko7aH3-5">
          <mxGeometry x="-10" y="20" width="60" height="30" as="geometry" />
        </mxCell>
        <mxCell id="i0WzTxd4GKsl4wko7aH3-19" value="" style="html=1;verticalLabelPosition=bottom;align=center;labelBackgroundColor=#ffffff;verticalAlign=top;strokeWidth=2;strokeColor=#0080F0;shadow=0;dashed=0;shape=mxgraph.ios7.icons.bell;" vertex="1" parent="i0WzTxd4GKsl4wko7aH3-5">
          <mxGeometry x="432" y="25" width="20" height="20" as="geometry" />
        </mxCell>
        <mxCell id="i0WzTxd4GKsl4wko7aH3-20" value="Results- items with basic info like picture price and name" style="rounded=0;whiteSpace=wrap;html=1;align=center;" vertex="1" parent="i0WzTxd4GKsl4wko7aH3-5">
          <mxGeometry x="150" y="130" width="350" height="210" as="geometry" />
        </mxCell>
        <mxCell id="i0WzTxd4GKsl4wko7aH3-21" value="Filters" style="rounded=0;whiteSpace=wrap;html=1;" vertex="1" parent="i0WzTxd4GKsl4wko7aH3-5">
          <mxGeometry x="10" y="100" width="120" height="234" as="geometry" />
        </mxCell>
        <mxCell id="i0WzTxd4GKsl4wko7aH3-22" value="Buyer Item Page" style="swimlane;whiteSpace=wrap;html=1;" vertex="1" parent="1">
          <mxGeometry x="20" y="2060" width="520" height="370" as="geometry" />
        </mxCell>
        <mxCell id="i0WzTxd4GKsl4wko7aH3-23" value="" style="rounded=0;whiteSpace=wrap;html=1;" vertex="1" parent="i0WzTxd4GKsl4wko7aH3-22">
          <mxGeometry y="20" width="520" height="30" as="geometry" />
        </mxCell>
        <mxCell id="i0WzTxd4GKsl4wko7aH3-24" value="Home" style="html=1;whiteSpace=wrap;" vertex="1" parent="i0WzTxd4GKsl4wko7aH3-22">
          <mxGeometry x="40" y="25" width="60" height="20" as="geometry" />
        </mxCell>
        <mxCell id="i0WzTxd4GKsl4wko7aH3-25" value="Cart" style="html=1;whiteSpace=wrap;fontSize=11;" vertex="1" parent="i0WzTxd4GKsl4wko7aH3-22">
          <mxGeometry x="320" y="25" width="60" height="20" as="geometry" />
        </mxCell>
        <mxCell id="i0WzTxd4GKsl4wko7aH3-26" value="Logout" style="html=1;whiteSpace=wrap;" vertex="1" parent="i0WzTxd4GKsl4wko7aH3-22">
          <mxGeometry x="460" y="35" width="60" height="15" as="geometry" />
        </mxCell>
        <mxCell id="i0WzTxd4GKsl4wko7aH3-29" value="&lt;font style=&quot;font-size: 9px;&quot;&gt;Username&lt;/font&gt;" style="text;html=1;strokeColor=none;fillColor=none;align=center;verticalAlign=middle;whiteSpace=wrap;rounded=0;" vertex="1" parent="i0WzTxd4GKsl4wko7aH3-22">
          <mxGeometry x="384" y="25" width="45" height="20" as="geometry" />
        </mxCell>
        <mxCell id="i0WzTxd4GKsl4wko7aH3-30" value="Account" style="html=1;whiteSpace=wrap;" vertex="1" parent="i0WzTxd4GKsl4wko7aH3-22">
          <mxGeometry x="460" y="20" width="60" height="15" as="geometry" />
        </mxCell>
        <mxCell id="i0WzTxd4GKsl4wko7aH3-31" value="Listing" style="html=1;whiteSpace=wrap;" vertex="1" parent="i0WzTxd4GKsl4wko7aH3-22">
          <mxGeometry x="110" y="25" width="60" height="20" as="geometry" />
        </mxCell>
        <mxCell id="i0WzTxd4GKsl4wko7aH3-32" value="Orders" style="html=1;whiteSpace=wrap;" vertex="1" parent="i0WzTxd4GKsl4wko7aH3-22">
          <mxGeometry x="180" y="25" width="60" height="20" as="geometry" />
        </mxCell>
        <mxCell id="i0WzTxd4GKsl4wko7aH3-33" value="Reports" style="html=1;whiteSpace=wrap;" vertex="1" parent="i0WzTxd4GKsl4wko7aH3-22">
          <mxGeometry x="250" y="25" width="60" height="20" as="geometry" />
        </mxCell>
        <mxCell id="i0WzTxd4GKsl4wko7aH3-34" value="Contact Us" style="html=1;whiteSpace=wrap;fontSize=11;" vertex="1" parent="i0WzTxd4GKsl4wko7aH3-22">
          <mxGeometry x="460" y="350" width="60" height="20" as="geometry" />
        </mxCell>
        <mxCell id="i0WzTxd4GKsl4wko7aH3-35" value="Logo" style="text;html=1;strokeColor=none;fillColor=none;align=center;verticalAlign=middle;whiteSpace=wrap;rounded=0;" vertex="1" parent="i0WzTxd4GKsl4wko7aH3-22">
          <mxGeometry x="-10" y="20" width="60" height="30" as="geometry" />
        </mxCell>
        <mxCell id="i0WzTxd4GKsl4wko7aH3-36" value="" style="html=1;verticalLabelPosition=bottom;align=center;labelBackgroundColor=#ffffff;verticalAlign=top;strokeWidth=2;strokeColor=#0080F0;shadow=0;dashed=0;shape=mxgraph.ios7.icons.bell;" vertex="1" parent="i0WzTxd4GKsl4wko7aH3-22">
          <mxGeometry x="432" y="25" width="20" height="20" as="geometry" />
        </mxCell>
        <mxCell id="i0WzTxd4GKsl4wko7aH3-39" value="Image of item" style="rounded=0;whiteSpace=wrap;html=1;" vertex="1" parent="i0WzTxd4GKsl4wko7aH3-22">
          <mxGeometry x="20" y="115" width="160" height="140" as="geometry" />
        </mxCell>
        <mxCell id="i0WzTxd4GKsl4wko7aH3-40" value="Item Name" style="text;html=1;strokeColor=none;fillColor=none;align=center;verticalAlign=middle;whiteSpace=wrap;rounded=0;" vertex="1" parent="i0WzTxd4GKsl4wko7aH3-22">
          <mxGeometry x="190" y="110" width="80" height="30" as="geometry" />
        </mxCell>
        <mxCell id="i0WzTxd4GKsl4wko7aH3-42" value="Item description&lt;br&gt;Item Price&lt;br&gt;item quantity&lt;br&gt;Vendor information" style="rounded=0;whiteSpace=wrap;html=1;" vertex="1" parent="i0WzTxd4GKsl4wko7aH3-22">
          <mxGeometry x="200" y="140" width="260" height="80" as="geometry" />
        </mxCell>
        <mxCell id="i0WzTxd4GKsl4wko7aH3-43" value="Add to cart" style="rounded=0;whiteSpace=wrap;html=1;" vertex="1" parent="i0WzTxd4GKsl4wko7aH3-22">
          <mxGeometry x="200" y="225" width="120" height="30" as="geometry" />
        </mxCell>
        <mxCell id="i0WzTxd4GKsl4wko7aH3-44" value="Contact vendor" style="rounded=0;whiteSpace=wrap;html=1;" vertex="1" parent="i0WzTxd4GKsl4wko7aH3-22">
          <mxGeometry x="340" y="225" width="120" height="30" as="geometry" />
        </mxCell>
        <mxCell id="i0WzTxd4GKsl4wko7aH3-45" value="Buyer Orders Page" style="swimlane;whiteSpace=wrap;html=1;" vertex="1" parent="1">
          <mxGeometry x="590" y="1660" width="520" height="370" as="geometry" />
        </mxCell>
        <mxCell id="i0WzTxd4GKsl4wko7aH3-46" value="" style="rounded=0;whiteSpace=wrap;html=1;" vertex="1" parent="i0WzTxd4GKsl4wko7aH3-45">
          <mxGeometry y="20" width="520" height="30" as="geometry" />
        </mxCell>
        <mxCell id="i0WzTxd4GKsl4wko7aH3-47" value="Home" style="html=1;whiteSpace=wrap;" vertex="1" parent="i0WzTxd4GKsl4wko7aH3-45">
          <mxGeometry x="40" y="25" width="60" height="20" as="geometry" />
        </mxCell>
        <mxCell id="i0WzTxd4GKsl4wko7aH3-48" value="Cart" style="html=1;whiteSpace=wrap;fontSize=11;" vertex="1" parent="i0WzTxd4GKsl4wko7aH3-45">
          <mxGeometry x="320" y="25" width="60" height="20" as="geometry" />
        </mxCell>
        <mxCell id="i0WzTxd4GKsl4wko7aH3-49" value="Logout" style="html=1;whiteSpace=wrap;" vertex="1" parent="i0WzTxd4GKsl4wko7aH3-45">
          <mxGeometry x="460" y="35" width="60" height="15" as="geometry" />
        </mxCell>
        <mxCell id="i0WzTxd4GKsl4wko7aH3-50" value="Title" style="text;align=center;fontStyle=1;verticalAlign=middle;spacingLeft=3;spacingRight=3;strokeColor=none;rotatable=0;points=[[0,0.5],[1,0.5]];portConstraint=eastwest;html=1;" vertex="1" parent="i0WzTxd4GKsl4wko7aH3-45">
          <mxGeometry x="220" y="60" width="80" height="26" as="geometry" />
        </mxCell>
        <mxCell id="i0WzTxd4GKsl4wko7aH3-51" value="search bar or like date bar" style="html=1;whiteSpace=wrap;" vertex="1" parent="i0WzTxd4GKsl4wko7aH3-45">
          <mxGeometry x="150" y="90" width="220" height="30" as="geometry" />
        </mxCell>
        <mxCell id="i0WzTxd4GKsl4wko7aH3-52" value="&lt;font style=&quot;font-size: 9px;&quot;&gt;Username&lt;/font&gt;" style="text;html=1;strokeColor=none;fillColor=none;align=center;verticalAlign=middle;whiteSpace=wrap;rounded=0;" vertex="1" parent="i0WzTxd4GKsl4wko7aH3-45">
          <mxGeometry x="384" y="25" width="45" height="20" as="geometry" />
        </mxCell>
        <mxCell id="i0WzTxd4GKsl4wko7aH3-53" value="Account" style="html=1;whiteSpace=wrap;" vertex="1" parent="i0WzTxd4GKsl4wko7aH3-45">
          <mxGeometry x="460" y="20" width="60" height="15" as="geometry" />
        </mxCell>
        <mxCell id="i0WzTxd4GKsl4wko7aH3-54" value="Listing" style="html=1;whiteSpace=wrap;" vertex="1" parent="i0WzTxd4GKsl4wko7aH3-45">
          <mxGeometry x="110" y="25" width="60" height="20" as="geometry" />
        </mxCell>
        <mxCell id="i0WzTxd4GKsl4wko7aH3-55" value="Orders" style="html=1;whiteSpace=wrap;" vertex="1" parent="i0WzTxd4GKsl4wko7aH3-45">
          <mxGeometry x="180" y="25" width="60" height="20" as="geometry" />
        </mxCell>
        <mxCell id="i0WzTxd4GKsl4wko7aH3-56" value="Reports" style="html=1;whiteSpace=wrap;" vertex="1" parent="i0WzTxd4GKsl4wko7aH3-45">
          <mxGeometry x="250" y="25" width="60" height="20" as="geometry" />
        </mxCell>
        <mxCell id="i0WzTxd4GKsl4wko7aH3-57" value="Contact Us" style="html=1;whiteSpace=wrap;fontSize=11;" vertex="1" parent="i0WzTxd4GKsl4wko7aH3-45">
          <mxGeometry x="460" y="350" width="60" height="20" as="geometry" />
        </mxCell>
        <mxCell id="i0WzTxd4GKsl4wko7aH3-58" value="Logo" style="text;html=1;strokeColor=none;fillColor=none;align=center;verticalAlign=middle;whiteSpace=wrap;rounded=0;" vertex="1" parent="i0WzTxd4GKsl4wko7aH3-45">
          <mxGeometry x="-10" y="20" width="60" height="30" as="geometry" />
        </mxCell>
        <mxCell id="i0WzTxd4GKsl4wko7aH3-59" value="" style="html=1;verticalLabelPosition=bottom;align=center;labelBackgroundColor=#ffffff;verticalAlign=top;strokeWidth=2;strokeColor=#0080F0;shadow=0;dashed=0;shape=mxgraph.ios7.icons.bell;" vertex="1" parent="i0WzTxd4GKsl4wko7aH3-45">
          <mxGeometry x="432" y="25" width="20" height="20" as="geometry" />
        </mxCell>
        <mxCell id="i0WzTxd4GKsl4wko7aH3-60" value="Results&amp;nbsp; - orders by date history" style="rounded=0;whiteSpace=wrap;html=1;align=center;" vertex="1" parent="i0WzTxd4GKsl4wko7aH3-45">
          <mxGeometry x="150" y="130" width="340" height="200" as="geometry" />
        </mxCell>
        <mxCell id="i0WzTxd4GKsl4wko7aH3-61" value="Filters&lt;br&gt;Date&lt;br&gt;status&lt;br&gt;price" style="rounded=0;whiteSpace=wrap;html=1;" vertex="1" parent="i0WzTxd4GKsl4wko7aH3-45">
          <mxGeometry x="10" y="100" width="120" height="234" as="geometry" />
        </mxCell>
        <mxCell id="i0WzTxd4GKsl4wko7aH3-62" value="Buyer Order Page" style="swimlane;whiteSpace=wrap;html=1;" vertex="1" parent="1">
          <mxGeometry x="590" y="2060" width="520" height="370" as="geometry" />
        </mxCell>
        <mxCell id="i0WzTxd4GKsl4wko7aH3-63" value="" style="rounded=0;whiteSpace=wrap;html=1;" vertex="1" parent="i0WzTxd4GKsl4wko7aH3-62">
          <mxGeometry y="20" width="520" height="30" as="geometry" />
        </mxCell>
        <mxCell id="i0WzTxd4GKsl4wko7aH3-64" value="Home" style="html=1;whiteSpace=wrap;" vertex="1" parent="i0WzTxd4GKsl4wko7aH3-62">
          <mxGeometry x="40" y="25" width="60" height="20" as="geometry" />
        </mxCell>
        <mxCell id="i0WzTxd4GKsl4wko7aH3-65" value="Cart" style="html=1;whiteSpace=wrap;fontSize=11;" vertex="1" parent="i0WzTxd4GKsl4wko7aH3-62">
          <mxGeometry x="320" y="25" width="60" height="20" as="geometry" />
        </mxCell>
        <mxCell id="i0WzTxd4GKsl4wko7aH3-66" value="Logout" style="html=1;whiteSpace=wrap;" vertex="1" parent="i0WzTxd4GKsl4wko7aH3-62">
          <mxGeometry x="460" y="35" width="60" height="15" as="geometry" />
        </mxCell>
        <mxCell id="i0WzTxd4GKsl4wko7aH3-67" value="Title" style="text;align=center;fontStyle=1;verticalAlign=middle;spacingLeft=3;spacingRight=3;strokeColor=none;rotatable=0;points=[[0,0.5],[1,0.5]];portConstraint=eastwest;html=1;" vertex="1" parent="i0WzTxd4GKsl4wko7aH3-62">
          <mxGeometry x="220" y="60" width="80" height="26" as="geometry" />
        </mxCell>
        <mxCell id="i0WzTxd4GKsl4wko7aH3-69" value="&lt;font style=&quot;font-size: 9px;&quot;&gt;Username&lt;/font&gt;" style="text;html=1;strokeColor=none;fillColor=none;align=center;verticalAlign=middle;whiteSpace=wrap;rounded=0;" vertex="1" parent="i0WzTxd4GKsl4wko7aH3-62">
          <mxGeometry x="384" y="25" width="45" height="20" as="geometry" />
        </mxCell>
        <mxCell id="i0WzTxd4GKsl4wko7aH3-70" value="Account" style="html=1;whiteSpace=wrap;" vertex="1" parent="i0WzTxd4GKsl4wko7aH3-62">
          <mxGeometry x="460" y="20" width="60" height="15" as="geometry" />
        </mxCell>
        <mxCell id="i0WzTxd4GKsl4wko7aH3-71" value="Listing" style="html=1;whiteSpace=wrap;" vertex="1" parent="i0WzTxd4GKsl4wko7aH3-62">
          <mxGeometry x="110" y="25" width="60" height="20" as="geometry" />
        </mxCell>
        <mxCell id="i0WzTxd4GKsl4wko7aH3-72" value="Orders" style="html=1;whiteSpace=wrap;" vertex="1" parent="i0WzTxd4GKsl4wko7aH3-62">
          <mxGeometry x="180" y="25" width="60" height="20" as="geometry" />
        </mxCell>
        <mxCell id="i0WzTxd4GKsl4wko7aH3-73" value="Reports" style="html=1;whiteSpace=wrap;" vertex="1" parent="i0WzTxd4GKsl4wko7aH3-62">
          <mxGeometry x="250" y="25" width="60" height="20" as="geometry" />
        </mxCell>
        <mxCell id="i0WzTxd4GKsl4wko7aH3-74" value="Contact Us" style="html=1;whiteSpace=wrap;fontSize=11;" vertex="1" parent="i0WzTxd4GKsl4wko7aH3-62">
          <mxGeometry x="460" y="350" width="60" height="20" as="geometry" />
        </mxCell>
        <mxCell id="i0WzTxd4GKsl4wko7aH3-75" value="Logo" style="text;html=1;strokeColor=none;fillColor=none;align=center;verticalAlign=middle;whiteSpace=wrap;rounded=0;" vertex="1" parent="i0WzTxd4GKsl4wko7aH3-62">
          <mxGeometry x="-10" y="20" width="60" height="30" as="geometry" />
        </mxCell>
        <mxCell id="i0WzTxd4GKsl4wko7aH3-76" value="" style="html=1;verticalLabelPosition=bottom;align=center;labelBackgroundColor=#ffffff;verticalAlign=top;strokeWidth=2;strokeColor=#0080F0;shadow=0;dashed=0;shape=mxgraph.ios7.icons.bell;" vertex="1" parent="i0WzTxd4GKsl4wko7aH3-62">
          <mxGeometry x="432" y="25" width="20" height="20" as="geometry" />
        </mxCell>
        <mxCell id="i0WzTxd4GKsl4wko7aH3-77" value="Order details&lt;br&gt;all items on order with prices with&amp;nbsp;&lt;br&gt;then like the time the last status was" style="rounded=0;whiteSpace=wrap;html=1;align=center;" vertex="1" parent="i0WzTxd4GKsl4wko7aH3-62">
          <mxGeometry x="10" y="100" width="350" height="180" as="geometry" />
        </mxCell>
        <mxCell id="i0WzTxd4GKsl4wko7aH3-78" value="Order actions&lt;br&gt;cancel order&lt;br&gt;contact vendors" style="rounded=0;whiteSpace=wrap;html=1;" vertex="1" parent="i0WzTxd4GKsl4wko7aH3-62">
          <mxGeometry x="390" y="100" width="120" height="180" as="geometry" />
        </mxCell>
        <mxCell id="i0WzTxd4GKsl4wko7aH3-79" value="Buyer inquirys Page" style="swimlane;whiteSpace=wrap;html=1;" vertex="1" parent="1">
          <mxGeometry x="1140" y="1660" width="520" height="370" as="geometry" />
        </mxCell>
        <mxCell id="i0WzTxd4GKsl4wko7aH3-80" value="" style="rounded=0;whiteSpace=wrap;html=1;" vertex="1" parent="i0WzTxd4GKsl4wko7aH3-79">
          <mxGeometry y="20" width="520" height="30" as="geometry" />
        </mxCell>
        <mxCell id="i0WzTxd4GKsl4wko7aH3-81" value="Home" style="html=1;whiteSpace=wrap;" vertex="1" parent="i0WzTxd4GKsl4wko7aH3-79">
          <mxGeometry x="40" y="25" width="60" height="20" as="geometry" />
        </mxCell>
        <mxCell id="i0WzTxd4GKsl4wko7aH3-82" value="Cart" style="html=1;whiteSpace=wrap;fontSize=11;" vertex="1" parent="i0WzTxd4GKsl4wko7aH3-79">
          <mxGeometry x="320" y="25" width="60" height="20" as="geometry" />
        </mxCell>
        <mxCell id="i0WzTxd4GKsl4wko7aH3-83" value="Logout" style="html=1;whiteSpace=wrap;" vertex="1" parent="i0WzTxd4GKsl4wko7aH3-79">
          <mxGeometry x="460" y="35" width="60" height="15" as="geometry" />
        </mxCell>
        <mxCell id="i0WzTxd4GKsl4wko7aH3-84" value="Title" style="text;align=center;fontStyle=1;verticalAlign=middle;spacingLeft=3;spacingRight=3;strokeColor=none;rotatable=0;points=[[0,0.5],[1,0.5]];portConstraint=eastwest;html=1;" vertex="1" parent="i0WzTxd4GKsl4wko7aH3-79">
          <mxGeometry x="220" y="60" width="80" height="26" as="geometry" />
        </mxCell>
        <mxCell id="i0WzTxd4GKsl4wko7aH3-85" value="search bar or like date bar" style="html=1;whiteSpace=wrap;" vertex="1" parent="i0WzTxd4GKsl4wko7aH3-79">
          <mxGeometry x="150" y="90" width="220" height="30" as="geometry" />
        </mxCell>
        <mxCell id="i0WzTxd4GKsl4wko7aH3-86" value="&lt;font style=&quot;font-size: 9px;&quot;&gt;Username&lt;/font&gt;" style="text;html=1;strokeColor=none;fillColor=none;align=center;verticalAlign=middle;whiteSpace=wrap;rounded=0;" vertex="1" parent="i0WzTxd4GKsl4wko7aH3-79">
          <mxGeometry x="384" y="25" width="45" height="20" as="geometry" />
        </mxCell>
        <mxCell id="i0WzTxd4GKsl4wko7aH3-87" value="Account" style="html=1;whiteSpace=wrap;" vertex="1" parent="i0WzTxd4GKsl4wko7aH3-79">
          <mxGeometry x="460" y="20" width="60" height="15" as="geometry" />
        </mxCell>
        <mxCell id="i0WzTxd4GKsl4wko7aH3-88" value="Listing" style="html=1;whiteSpace=wrap;" vertex="1" parent="i0WzTxd4GKsl4wko7aH3-79">
          <mxGeometry x="110" y="25" width="60" height="20" as="geometry" />
        </mxCell>
        <mxCell id="i0WzTxd4GKsl4wko7aH3-89" value="Orders" style="html=1;whiteSpace=wrap;" vertex="1" parent="i0WzTxd4GKsl4wko7aH3-79">
          <mxGeometry x="180" y="25" width="60" height="20" as="geometry" />
        </mxCell>
        <mxCell id="i0WzTxd4GKsl4wko7aH3-90" value="Reports" style="html=1;whiteSpace=wrap;" vertex="1" parent="i0WzTxd4GKsl4wko7aH3-79">
          <mxGeometry x="250" y="25" width="60" height="20" as="geometry" />
        </mxCell>
        <mxCell id="i0WzTxd4GKsl4wko7aH3-91" value="Contact Us" style="html=1;whiteSpace=wrap;fontSize=11;" vertex="1" parent="i0WzTxd4GKsl4wko7aH3-79">
          <mxGeometry x="460" y="350" width="60" height="20" as="geometry" />
        </mxCell>
        <mxCell id="i0WzTxd4GKsl4wko7aH3-92" value="Logo" style="text;html=1;strokeColor=none;fillColor=none;align=center;verticalAlign=middle;whiteSpace=wrap;rounded=0;" vertex="1" parent="i0WzTxd4GKsl4wko7aH3-79">
          <mxGeometry x="-10" y="20" width="60" height="30" as="geometry" />
        </mxCell>
        <mxCell id="i0WzTxd4GKsl4wko7aH3-93" value="" style="html=1;verticalLabelPosition=bottom;align=center;labelBackgroundColor=#ffffff;verticalAlign=top;strokeWidth=2;strokeColor=#0080F0;shadow=0;dashed=0;shape=mxgraph.ios7.icons.bell;" vertex="1" parent="i0WzTxd4GKsl4wko7aH3-79">
          <mxGeometry x="432" y="25" width="20" height="20" as="geometry" />
        </mxCell>
        <mxCell id="i0WzTxd4GKsl4wko7aH3-94" value="Results&amp;nbsp; - inquirys by date history" style="rounded=0;whiteSpace=wrap;html=1;align=center;" vertex="1" parent="i0WzTxd4GKsl4wko7aH3-79">
          <mxGeometry x="150" y="130" width="340" height="200" as="geometry" />
        </mxCell>
        <mxCell id="i0WzTxd4GKsl4wko7aH3-95" value="Filters&lt;br&gt;Date&lt;br&gt;Vendor" style="rounded=0;whiteSpace=wrap;html=1;" vertex="1" parent="i0WzTxd4GKsl4wko7aH3-79">
          <mxGeometry x="10" y="100" width="120" height="234" as="geometry" />
        </mxCell>
        <mxCell id="i0WzTxd4GKsl4wko7aH3-96" value="Buyer Inquiry Page" style="swimlane;whiteSpace=wrap;html=1;" vertex="1" parent="1">
          <mxGeometry x="1140" y="2060" width="520" height="370" as="geometry" />
        </mxCell>
        <mxCell id="i0WzTxd4GKsl4wko7aH3-97" value="" style="rounded=0;whiteSpace=wrap;html=1;" vertex="1" parent="i0WzTxd4GKsl4wko7aH3-96">
          <mxGeometry y="20" width="520" height="30" as="geometry" />
        </mxCell>
        <mxCell id="i0WzTxd4GKsl4wko7aH3-98" value="Home" style="html=1;whiteSpace=wrap;" vertex="1" parent="i0WzTxd4GKsl4wko7aH3-96">
          <mxGeometry x="40" y="25" width="60" height="20" as="geometry" />
        </mxCell>
        <mxCell id="i0WzTxd4GKsl4wko7aH3-99" value="Cart" style="html=1;whiteSpace=wrap;fontSize=11;" vertex="1" parent="i0WzTxd4GKsl4wko7aH3-96">
          <mxGeometry x="320" y="25" width="60" height="20" as="geometry" />
        </mxCell>
        <mxCell id="i0WzTxd4GKsl4wko7aH3-100" value="Logout" style="html=1;whiteSpace=wrap;" vertex="1" parent="i0WzTxd4GKsl4wko7aH3-96">
          <mxGeometry x="460" y="35" width="60" height="15" as="geometry" />
        </mxCell>
        <mxCell id="i0WzTxd4GKsl4wko7aH3-101" value="Title" style="text;align=center;fontStyle=1;verticalAlign=middle;spacingLeft=3;spacingRight=3;strokeColor=none;rotatable=0;points=[[0,0.5],[1,0.5]];portConstraint=eastwest;html=1;" vertex="1" parent="i0WzTxd4GKsl4wko7aH3-96">
          <mxGeometry x="220" y="60" width="80" height="26" as="geometry" />
        </mxCell>
        <mxCell id="i0WzTxd4GKsl4wko7aH3-102" value="&lt;font style=&quot;font-size: 9px;&quot;&gt;Username&lt;/font&gt;" style="text;html=1;strokeColor=none;fillColor=none;align=center;verticalAlign=middle;whiteSpace=wrap;rounded=0;" vertex="1" parent="i0WzTxd4GKsl4wko7aH3-96">
          <mxGeometry x="384" y="25" width="45" height="20" as="geometry" />
        </mxCell>
        <mxCell id="i0WzTxd4GKsl4wko7aH3-103" value="Account" style="html=1;whiteSpace=wrap;" vertex="1" parent="i0WzTxd4GKsl4wko7aH3-96">
          <mxGeometry x="460" y="20" width="60" height="15" as="geometry" />
        </mxCell>
        <mxCell id="i0WzTxd4GKsl4wko7aH3-104" value="Listing" style="html=1;whiteSpace=wrap;" vertex="1" parent="i0WzTxd4GKsl4wko7aH3-96">
          <mxGeometry x="110" y="25" width="60" height="20" as="geometry" />
        </mxCell>
        <mxCell id="i0WzTxd4GKsl4wko7aH3-105" value="Orders" style="html=1;whiteSpace=wrap;" vertex="1" parent="i0WzTxd4GKsl4wko7aH3-96">
          <mxGeometry x="180" y="25" width="60" height="20" as="geometry" />
        </mxCell>
        <mxCell id="i0WzTxd4GKsl4wko7aH3-106" value="Reports" style="html=1;whiteSpace=wrap;" vertex="1" parent="i0WzTxd4GKsl4wko7aH3-96">
          <mxGeometry x="250" y="25" width="60" height="20" as="geometry" />
        </mxCell>
        <mxCell id="i0WzTxd4GKsl4wko7aH3-107" value="Contact Us" style="html=1;whiteSpace=wrap;fontSize=11;" vertex="1" parent="i0WzTxd4GKsl4wko7aH3-96">
          <mxGeometry x="460" y="350" width="60" height="20" as="geometry" />
        </mxCell>
        <mxCell id="i0WzTxd4GKsl4wko7aH3-108" value="Logo" style="text;html=1;strokeColor=none;fillColor=none;align=center;verticalAlign=middle;whiteSpace=wrap;rounded=0;" vertex="1" parent="i0WzTxd4GKsl4wko7aH3-96">
          <mxGeometry x="-10" y="20" width="60" height="30" as="geometry" />
        </mxCell>
        <mxCell id="i0WzTxd4GKsl4wko7aH3-109" value="" style="html=1;verticalLabelPosition=bottom;align=center;labelBackgroundColor=#ffffff;verticalAlign=top;strokeWidth=2;strokeColor=#0080F0;shadow=0;dashed=0;shape=mxgraph.ios7.icons.bell;" vertex="1" parent="i0WzTxd4GKsl4wko7aH3-96">
          <mxGeometry x="432" y="25" width="20" height="20" as="geometry" />
        </mxCell>
        <mxCell id="i0WzTxd4GKsl4wko7aH3-110" value="Inquiry messagesby most recent&lt;br&gt;the top most is blank form for buyer to send new message" style="rounded=0;whiteSpace=wrap;html=1;align=center;" vertex="1" parent="i0WzTxd4GKsl4wko7aH3-96">
          <mxGeometry x="37.5" y="110" width="445" height="180" as="geometry" />
        </mxCell>
        <mxCell id="i0WzTxd4GKsl4wko7aH3-112" value="Buyer Cart Page" style="swimlane;whiteSpace=wrap;html=1;startSize=23;" vertex="1" parent="1">
          <mxGeometry x="1700" y="1660" width="520" height="370" as="geometry" />
        </mxCell>
        <mxCell id="i0WzTxd4GKsl4wko7aH3-113" value="" style="rounded=0;whiteSpace=wrap;html=1;" vertex="1" parent="i0WzTxd4GKsl4wko7aH3-112">
          <mxGeometry y="20" width="520" height="30" as="geometry" />
        </mxCell>
        <mxCell id="i0WzTxd4GKsl4wko7aH3-114" value="Home" style="html=1;whiteSpace=wrap;" vertex="1" parent="i0WzTxd4GKsl4wko7aH3-112">
          <mxGeometry x="40" y="25" width="60" height="20" as="geometry" />
        </mxCell>
        <mxCell id="i0WzTxd4GKsl4wko7aH3-115" value="Cart" style="html=1;whiteSpace=wrap;fontSize=11;" vertex="1" parent="i0WzTxd4GKsl4wko7aH3-112">
          <mxGeometry x="320" y="25" width="60" height="20" as="geometry" />
        </mxCell>
        <mxCell id="i0WzTxd4GKsl4wko7aH3-116" value="Logout" style="html=1;whiteSpace=wrap;" vertex="1" parent="i0WzTxd4GKsl4wko7aH3-112">
          <mxGeometry x="460" y="35" width="60" height="15" as="geometry" />
        </mxCell>
        <mxCell id="i0WzTxd4GKsl4wko7aH3-117" value="Title" style="text;align=center;fontStyle=1;verticalAlign=middle;spacingLeft=3;spacingRight=3;strokeColor=none;rotatable=0;points=[[0,0.5],[1,0.5]];portConstraint=eastwest;html=1;" vertex="1" parent="i0WzTxd4GKsl4wko7aH3-112">
          <mxGeometry x="220" y="60" width="80" height="26" as="geometry" />
        </mxCell>
        <mxCell id="i0WzTxd4GKsl4wko7aH3-118" value="&lt;font style=&quot;font-size: 9px;&quot;&gt;Username&lt;/font&gt;" style="text;html=1;strokeColor=none;fillColor=none;align=center;verticalAlign=middle;whiteSpace=wrap;rounded=0;" vertex="1" parent="i0WzTxd4GKsl4wko7aH3-112">
          <mxGeometry x="384" y="25" width="45" height="20" as="geometry" />
        </mxCell>
        <mxCell id="i0WzTxd4GKsl4wko7aH3-119" value="Account" style="html=1;whiteSpace=wrap;" vertex="1" parent="i0WzTxd4GKsl4wko7aH3-112">
          <mxGeometry x="460" y="20" width="60" height="15" as="geometry" />
        </mxCell>
        <mxCell id="i0WzTxd4GKsl4wko7aH3-120" value="Listing" style="html=1;whiteSpace=wrap;" vertex="1" parent="i0WzTxd4GKsl4wko7aH3-112">
          <mxGeometry x="110" y="25" width="60" height="20" as="geometry" />
        </mxCell>
        <mxCell id="i0WzTxd4GKsl4wko7aH3-121" value="Orders" style="html=1;whiteSpace=wrap;" vertex="1" parent="i0WzTxd4GKsl4wko7aH3-112">
          <mxGeometry x="180" y="25" width="60" height="20" as="geometry" />
        </mxCell>
        <mxCell id="i0WzTxd4GKsl4wko7aH3-122" value="Reports" style="html=1;whiteSpace=wrap;" vertex="1" parent="i0WzTxd4GKsl4wko7aH3-112">
          <mxGeometry x="250" y="25" width="60" height="20" as="geometry" />
        </mxCell>
        <mxCell id="i0WzTxd4GKsl4wko7aH3-123" value="Contact Us" style="html=1;whiteSpace=wrap;fontSize=11;" vertex="1" parent="i0WzTxd4GKsl4wko7aH3-112">
          <mxGeometry x="460" y="350" width="60" height="20" as="geometry" />
        </mxCell>
        <mxCell id="i0WzTxd4GKsl4wko7aH3-124" value="Logo" style="text;html=1;strokeColor=none;fillColor=none;align=center;verticalAlign=middle;whiteSpace=wrap;rounded=0;" vertex="1" parent="i0WzTxd4GKsl4wko7aH3-112">
          <mxGeometry x="-10" y="20" width="60" height="30" as="geometry" />
        </mxCell>
        <mxCell id="i0WzTxd4GKsl4wko7aH3-125" value="" style="html=1;verticalLabelPosition=bottom;align=center;labelBackgroundColor=#ffffff;verticalAlign=top;strokeWidth=2;strokeColor=#0080F0;shadow=0;dashed=0;shape=mxgraph.ios7.icons.bell;" vertex="1" parent="i0WzTxd4GKsl4wko7aH3-112">
          <mxGeometry x="432" y="25" width="20" height="20" as="geometry" />
        </mxCell>
        <mxCell id="i0WzTxd4GKsl4wko7aH3-126" value="Cart details&lt;br&gt;all items on order with prices and quantity plus a&amp;nbsp;&lt;br&gt;input thingy to change the amount order" style="rounded=0;whiteSpace=wrap;html=1;align=center;" vertex="1" parent="i0WzTxd4GKsl4wko7aH3-112">
          <mxGeometry x="10" y="100" width="350" height="180" as="geometry" />
        </mxCell>
        <mxCell id="i0WzTxd4GKsl4wko7aH3-127" value="Cart features&lt;br&gt;Clear all&lt;br&gt;update cart&lt;br&gt;Go to check out" style="rounded=0;whiteSpace=wrap;html=1;" vertex="1" parent="i0WzTxd4GKsl4wko7aH3-112">
          <mxGeometry x="390" y="100" width="120" height="180" as="geometry" />
        </mxCell>
        <mxCell id="i0WzTxd4GKsl4wko7aH3-144" value="Buyer Checkout Page" style="swimlane;whiteSpace=wrap;html=1;startSize=23;" vertex="1" parent="1">
          <mxGeometry x="1700" y="2060" width="520" height="370" as="geometry" />
        </mxCell>
        <mxCell id="i0WzTxd4GKsl4wko7aH3-145" value="" style="rounded=0;whiteSpace=wrap;html=1;" vertex="1" parent="i0WzTxd4GKsl4wko7aH3-144">
          <mxGeometry y="20" width="520" height="30" as="geometry" />
        </mxCell>
        <mxCell id="i0WzTxd4GKsl4wko7aH3-146" value="Home" style="html=1;whiteSpace=wrap;" vertex="1" parent="i0WzTxd4GKsl4wko7aH3-144">
          <mxGeometry x="40" y="25" width="60" height="20" as="geometry" />
        </mxCell>
        <mxCell id="i0WzTxd4GKsl4wko7aH3-147" value="Cart" style="html=1;whiteSpace=wrap;fontSize=11;" vertex="1" parent="i0WzTxd4GKsl4wko7aH3-144">
          <mxGeometry x="320" y="25" width="60" height="20" as="geometry" />
        </mxCell>
        <mxCell id="i0WzTxd4GKsl4wko7aH3-148" value="Logout" style="html=1;whiteSpace=wrap;" vertex="1" parent="i0WzTxd4GKsl4wko7aH3-144">
          <mxGeometry x="460" y="35" width="60" height="15" as="geometry" />
        </mxCell>
        <mxCell id="i0WzTxd4GKsl4wko7aH3-149" value="Title" style="text;align=center;fontStyle=1;verticalAlign=middle;spacingLeft=3;spacingRight=3;strokeColor=none;rotatable=0;points=[[0,0.5],[1,0.5]];portConstraint=eastwest;html=1;" vertex="1" parent="i0WzTxd4GKsl4wko7aH3-144">
          <mxGeometry x="220" y="60" width="80" height="26" as="geometry" />
        </mxCell>
        <mxCell id="i0WzTxd4GKsl4wko7aH3-150" value="&lt;font style=&quot;font-size: 9px;&quot;&gt;Username&lt;/font&gt;" style="text;html=1;strokeColor=none;fillColor=none;align=center;verticalAlign=middle;whiteSpace=wrap;rounded=0;" vertex="1" parent="i0WzTxd4GKsl4wko7aH3-144">
          <mxGeometry x="384" y="25" width="45" height="20" as="geometry" />
        </mxCell>
        <mxCell id="i0WzTxd4GKsl4wko7aH3-151" value="Account" style="html=1;whiteSpace=wrap;" vertex="1" parent="i0WzTxd4GKsl4wko7aH3-144">
          <mxGeometry x="460" y="20" width="60" height="15" as="geometry" />
        </mxCell>
        <mxCell id="i0WzTxd4GKsl4wko7aH3-152" value="Listing" style="html=1;whiteSpace=wrap;" vertex="1" parent="i0WzTxd4GKsl4wko7aH3-144">
          <mxGeometry x="110" y="25" width="60" height="20" as="geometry" />
        </mxCell>
        <mxCell id="i0WzTxd4GKsl4wko7aH3-153" value="Orders" style="html=1;whiteSpace=wrap;" vertex="1" parent="i0WzTxd4GKsl4wko7aH3-144">
          <mxGeometry x="180" y="25" width="60" height="20" as="geometry" />
        </mxCell>
        <mxCell id="i0WzTxd4GKsl4wko7aH3-154" value="Reports" style="html=1;whiteSpace=wrap;" vertex="1" parent="i0WzTxd4GKsl4wko7aH3-144">
          <mxGeometry x="250" y="25" width="60" height="20" as="geometry" />
        </mxCell>
        <mxCell id="i0WzTxd4GKsl4wko7aH3-155" value="Contact Us" style="html=1;whiteSpace=wrap;fontSize=11;" vertex="1" parent="i0WzTxd4GKsl4wko7aH3-144">
          <mxGeometry x="460" y="350" width="60" height="20" as="geometry" />
        </mxCell>
        <mxCell id="i0WzTxd4GKsl4wko7aH3-156" value="Logo" style="text;html=1;strokeColor=none;fillColor=none;align=center;verticalAlign=middle;whiteSpace=wrap;rounded=0;" vertex="1" parent="i0WzTxd4GKsl4wko7aH3-144">
          <mxGeometry x="-10" y="20" width="60" height="30" as="geometry" />
        </mxCell>
        <mxCell id="i0WzTxd4GKsl4wko7aH3-157" value="" style="html=1;verticalLabelPosition=bottom;align=center;labelBackgroundColor=#ffffff;verticalAlign=top;strokeWidth=2;strokeColor=#0080F0;shadow=0;dashed=0;shape=mxgraph.ios7.icons.bell;" vertex="1" parent="i0WzTxd4GKsl4wko7aH3-144">
          <mxGeometry x="432" y="25" width="20" height="20" as="geometry" />
        </mxCell>
        <mxCell id="i0WzTxd4GKsl4wko7aH3-158" value="Form where cx enters payment info&lt;br&gt;adress info&lt;br&gt;shipping" style="rounded=0;whiteSpace=wrap;html=1;align=center;" vertex="1" parent="i0WzTxd4GKsl4wko7aH3-144">
          <mxGeometry x="10" y="100" width="490" height="180" as="geometry" />
        </mxCell>
        <mxCell id="i0WzTxd4GKsl4wko7aH3-161" value="After successful&lt;br&gt;give success message" style="ellipse;shape=cloud;whiteSpace=wrap;html=1;" vertex="1" parent="1">
          <mxGeometry x="1750" y="2440" width="120" height="80" as="geometry" />
        </mxCell>
      </root>
    </mxGraphModel>
  </diagram>
</mxfile>
